<svg width="50" height="36" viewBox="0 0 50 36" fill="none" xmlns="http://www.w3.org/2000/svg">
<rect y="32.9734" width="49.1093" height="2.94656" fill="#CCE5F1"/>
<rect x="1.40308" y="22.3096" width="22.1693" height="10.6637" fill="#C5CCD3"/>
<rect x="23.5725" y="22.3096" width="22.1693" height="10.6637" fill="#C5CCD3"/>
<path d="M7.71729 7.92764L23.5726 3.22718V22.3096H7.71729V7.92764Z" fill="#E6E9ED"/>
<path d="M29.8865 7.92764L45.7418 3.22718V22.3096H29.8865V7.92764Z" fill="#E6E9ED"/>
<path d="M23.5725 22.3096H24.6249V32.9734H23.5725V22.3096Z" fill="#E6E9ED"/>
<path d="M1.40308 22.3096H2.45542V32.9734H1.40308V22.3096Z" fill="#E6E9ED"/>
<path d="M10.4902 11.6951L10.2076 11.7736V12.0668V19.5736V19.9594H10.5935H20.696H21.0818V19.5736V9.2606V8.75295L20.5927 8.88882L10.4902 11.6951Z" fill="#288EC0" stroke="#074E71" stroke-width="0.771717"/>
<path d="M32.6597 11.6951L32.3771 11.7736V12.0668V19.5736V19.9594H32.7629H42.8654H43.2513V19.5736V9.2606V8.75295L42.7621 8.88882L32.6597 11.6951Z" fill="#288EC0" stroke="#074E71" stroke-width="0.771717"/>
<rect x="10.2076" y="25.5017" width="10.8742" height="7.08577" fill="#288EC0" stroke="#074E71" stroke-width="0.771717"/>
<rect x="32.3771" y="25.5017" width="10.8742" height="7.08577" fill="#288EC0" stroke="#074E71" stroke-width="0.771717"/>
<rect width="22.9544" height="3.9989" rx="1.99945" transform="matrix(-0.965926 0.258819 0.258819 0.965926 24.9084 0.771717)" fill="#FD851A"/>
<rect width="22.9544" height="3.9989" rx="1.99945" transform="matrix(-0.965926 0.258819 0.258819 0.965926 47.0776 0.771717)" fill="#FD851A"/>
<path d="M38.2595 10.3129L38.2595 19.5735" stroke="#074E71" stroke-width="0.771717"/>
<path d="M16.0901 10.3129L16.0901 19.5735" stroke="#074E71" stroke-width="0.771717"/>
<line x1="28.9637" y1="18.872" x2="28.9637" y2="22.3096" stroke="#074E71" stroke-width="0.771717"/>
<line x1="6.79455" y1="18.872" x2="6.79455" y2="22.3096" stroke="#074E71" stroke-width="0.771717"/>
<line x1="27.5957" y1="18.4861" x2="30.3318" y2="18.4861" stroke="#074E71" stroke-width="0.771717"/>
<line x1="5.42651" y1="18.4861" x2="8.1626" y2="18.4861" stroke="#074E71" stroke-width="0.771717"/>
</svg>
